<svg xmlns="http://www.w3.org/2000/svg" width="256" height="256" viewBox="0 0 100 100"><path fill="#fc8803" d="M16.74 73.05L16.74 73.05Q11.91 73.05 8.91 70.91Q5.91 68.77 5.91 63.80L5.91 63.80L5.91 31.02Q6.25 30.89 6.98 30.71Q7.70 30.54 8.53 30.54L8.53 30.54Q11.43 30.54 11.43 33.03L11.43 33.03L11.43 40.96L22.74 40.96Q22.95 41.31 23.16 41.89Q23.37 42.48 23.37 43.17L23.37 43.17Q23.37 45.52 21.30 45.52L21.30 45.52L11.43 45.52L11.43 63.45Q11.43 66.22 12.98 67.35Q14.53 68.49 17.36 68.49L17.36 68.49Q18.54 68.49 19.98 68.08Q21.43 67.66 22.40 67.11L22.40 67.11Q22.81 67.53 23.16 68.15Q23.50 68.77 23.50 69.60L23.50 69.60Q23.50 71.11 21.71 72.08Q19.92 73.05 16.74 73.05ZM41.31 29.30L41.31 29.30Q44.55 29.30 47.24 30.02Q49.93 30.75 51.86 32.20Q53.80 33.65 54.86 35.79Q55.93 37.92 55.93 40.75L55.93 40.75Q55.93 42.82 55.24 44.45Q54.55 46.07 53.55 47.24Q52.55 48.41 51.38 49.10Q50.21 49.79 49.31 50L49.31 50Q50.69 50.41 52.07 51.28Q53.45 52.14 54.59 53.42Q55.73 54.69 56.45 56.45Q57.18 58.21 57.18 60.42L57.18 60.42Q57.18 63.52 56.04 65.87Q54.90 68.22 52.83 69.77Q50.76 71.32 47.86 72.11Q44.96 72.91 41.51 72.91L41.51 72.91Q38.68 72.91 36.30 72.46Q33.92 72.01 32.20 71.22Q30.47 70.42 29.51 69.46Q28.54 68.49 28.54 67.46L28.54 67.46Q28.54 66.49 29.06 65.80Q29.58 65.11 30.40 64.63L30.40 64.63Q32.20 66.01 34.79 67.11Q37.37 68.22 41.51 68.22L41.51 68.22Q46.07 68.22 48.90 66.25Q51.72 64.28 51.72 60.28L51.72 60.28Q51.72 56.76 49.10 54.62Q46.48 52.48 41.51 52.48L41.51 52.48L35.79 52.48Q35.51 52.14 35.30 51.48Q35.10 50.83 35.10 50.14L35.10 50.14Q35.10 49.38 35.30 48.76Q35.51 48.14 35.79 47.79L35.79 47.79L41.03 47.79Q46.14 47.79 48.31 45.89Q50.48 44.00 50.48 40.89L50.48 40.89Q50.48 37.51 48.03 35.75Q45.58 33.99 41.24 33.99L41.24 33.99Q37.92 33.99 35.41 34.99Q32.89 35.99 31.23 37.17L31.23 37.17Q30.54 36.82 29.99 36.10Q29.44 35.37 29.44 34.41L29.44 34.41Q29.44 33.51 30.33 32.58Q31.23 31.65 32.85 30.92Q34.47 30.20 36.65 29.75Q38.82 29.30 41.31 29.30ZM72.08 72.01L72.08 72.01Q71.73 72.15 71.05 72.32Q70.36 72.49 69.53 72.49L69.53 72.49Q66.56 72.49 66.56 70.01L66.56 70.01L66.56 27.44Q66.91 27.30 67.63 27.13Q68.35 26.95 69.18 26.95L69.18 26.95Q72.08 26.95 72.08 29.44L72.08 29.44L72.08 41.86Q73.74 40.89 75.98 40.13Q78.22 39.37 81.05 39.37L81.05 39.37Q83.95 39.37 86.33 40.13Q88.71 40.89 90.43 42.44Q92.16 44.00 93.13 46.38Q94.09 48.76 94.09 51.93L94.09 51.93L94.09 72.01Q93.75 72.15 93.02 72.32Q92.30 72.49 91.54 72.49L91.54 72.49Q88.57 72.49 88.57 70.01L88.57 70.01L88.57 52.07Q88.57 47.93 86.29 45.93Q84.02 43.93 80.29 43.93L80.29 43.93Q77.88 43.93 75.77 44.79Q73.67 45.65 72.08 46.89L72.08 46.89L72.08 72.01Z"></path></svg>